# xmcd
#
# Track frame offsets: 
#        150
#        16874
#        35065
#        48634
#        69081
#        84613
#        105782
#        121555
#        134449
#        155741
#
# Disc length: 2352 seconds
#
# Revision: 4
# Processed by: cddbd v1.5.2PL0 Copyright (c) Steve Scherf et al.
# Submitted via: ExactAudioCopyFreeDBPlugin 1.0
#
DISCID=76092e0a
DTITLE=Trower, Robin - Dreaming The Blues (2)
DYEAR=2003
DGENRE=Rock
TTITLE0=Prisoner Of Love
TTITLE1=Precious Gift
TTITLE2=Rise Up Like The Sun
TTITLE3=Secret Place
TTITLE4=Promise You The Stars
TTITLE5=I Want You To Love Me
TTITLE6=Next In Line
TTITLE7=Inside Out
TTITLE8=Shining Through
TTITLE9=Someday Blues
EXTD=
EXTT0=
EXTT1=
EXTT2=
EXTT3=
EXTT4=
EXTT5=
EXTT6=
EXTT7=
EXTT8=
EXTT9=
PLAYORDER=
